<?xml version="1.0" encoding="UTF-8" ?>
<!DOCTYPE svg PUBLIC "-//W3C//DTD SVG 1.1//EN" "http://www.w3.org/Graphics/SVG/1.1/DTD/svg11.dtd">
<svg width="161pt" height="75pt" viewBox="0 0 161 75" version="1.1" xmlns="http://www.w3.org/2000/svg">
<g id="#000000ff">
</g>
<g id="#ffffffff">
<path fill="#ffffff" opacity="1.00" d=" M 119.86 0.00 L 125.67 0.00 C 137.39 0.65 148.57 7.13 154.93 16.99 C 158.30 22.02 160.12 27.90 161.00 33.85 L 161.00 40.82 C 159.43 58.80 143.69 74.07 125.65 75.00 L 121.31 75.00 C 112.48 74.48 104.06 70.68 97.57 64.73 C 96.64 65.82 95.71 66.91 94.77 67.99 C 93.16 63.36 94.24 58.28 94.20 53.47 C 97.35 56.07 99.19 59.92 102.50 62.39 C 112.55 71.19 128.20 72.66 139.69 65.79 C 151.60 59.13 158.41 44.53 155.49 31.13 C 152.86 16.77 139.56 5.31 124.95 4.90 C 113.80 4.25 102.85 9.99 96.49 19.08 C 95.11 18.18 93.76 17.21 92.45 16.20 C 98.83 7.25 108.91 1.21 119.86 0.00 Z" />
<path fill="#ffffff" opacity="1.00" d=" M 89.24 23.63 C 91.06 23.63 92.88 23.62 94.70 23.62 C 93.56 30.48 92.08 37.29 91.12 44.17 C 91.13 46.02 93.22 45.51 94.39 45.46 C 94.31 46.90 94.23 48.35 94.16 49.80 C 91.97 50.17 89.41 50.91 87.45 49.41 C 85.45 48.00 85.37 45.28 85.79 43.09 C 86.89 36.60 88.13 30.12 89.24 23.63 Z" />
<path fill="#ffffff" opacity="1.00" d=" M 102.18 31.08 C 103.88 23.64 113.32 21.93 119.46 24.55 C 124.55 26.80 123.64 34.77 119.09 37.12 C 114.97 39.77 109.61 37.90 105.46 40.33 C 103.13 41.57 103.19 44.49 102.56 46.69 C 108.38 46.82 114.19 46.71 120.01 46.76 C 119.86 47.49 119.54 48.94 119.38 49.67 C 112.57 50.17 105.68 49.73 98.84 49.88 C 99.73 46.07 99.40 41.40 102.68 38.66 C 105.85 35.91 110.26 36.23 114.16 35.72 C 117.05 35.39 120.31 33.14 119.72 29.86 C 119.46 27.62 117.12 26.53 115.11 26.39 C 111.49 25.93 106.79 26.96 105.59 30.93 C 104.74 30.97 103.04 31.04 102.18 31.08 Z" />
<path fill="#ffffff" opacity="1.00" d=" M 139.03 25.11 C 140.57 22.91 143.46 23.97 145.69 23.74 C 144.66 29.59 143.60 35.45 142.57 41.30 C 143.36 41.31 144.94 41.32 145.73 41.32 C 145.55 42.36 145.37 43.41 145.19 44.45 C 144.41 44.44 142.84 44.42 142.06 44.41 C 141.71 46.23 141.38 48.05 141.05 49.88 C 140.21 49.88 138.54 49.88 137.71 49.88 C 138.02 48.07 138.34 46.25 138.66 44.44 C 133.65 44.44 128.64 44.44 123.63 44.44 C 123.66 43.55 123.72 41.76 123.76 40.87 C 128.80 35.57 133.96 30.39 139.03 25.11 M 127.30 41.30 C 131.27 41.32 135.24 41.31 139.21 41.31 C 140.15 36.32 141.10 31.33 142.05 26.35 C 137.14 31.34 132.19 36.30 127.30 41.30 Z" />
<path fill="#ffffff" opacity="1.00" d=" M 57.49 31.70 C 58.16 30.88 58.83 30.06 59.51 29.25 C 60.72 30.26 61.93 31.28 63.15 32.29 C 62.31 33.20 61.47 34.11 60.64 35.03 C 63.12 39.06 61.65 44.56 57.49 46.82 C 59.97 48.22 61.48 51.05 60.49 53.88 C 58.80 60.62 49.88 62.45 44.25 59.76 C 41.43 58.48 40.84 55.20 40.95 52.42 C 42.55 52.42 44.15 52.42 45.74 52.43 C 46.13 57.71 55.31 57.23 55.21 52.06 C 54.19 48.51 49.58 50.22 46.94 48.97 C 40.94 47.01 40.68 38.58 44.53 34.47 C 47.71 30.88 53.11 30.17 57.49 31.70 M 50.14 36.23 C 47.45 37.36 46.22 41.40 48.39 43.55 C 51.25 46.17 56.70 44.05 56.64 40.03 C 57.03 36.61 52.89 34.71 50.14 36.23 Z" />
<path fill="#ffffff" opacity="1.00" d=" M 3.49 32.49 C 7.53 31.04 12.09 30.18 16.20 31.85 C 18.24 32.62 19.34 34.89 19.00 37.00 C 18.60 41.35 17.52 45.60 16.87 49.92 C 15.46 49.94 14.05 49.96 12.64 49.98 C 12.38 49.65 11.87 49.01 11.61 48.68 C 8.05 51.10 1.69 51.27 0.00 46.53 L 0.00 43.70 C 1.51 37.55 9.01 36.96 14.06 38.60 C 12.70 33.78 6.93 36.06 3.50 36.66 C 3.50 35.61 3.49 33.53 3.49 32.49 M 5.31 43.96 C 6.56 47.32 11.63 45.60 12.86 42.96 C 10.47 41.93 6.82 41.16 5.31 43.96 Z" />
<path fill="#ffffff" opacity="1.00" d=" M 27.38 33.58 C 30.00 31.21 33.83 30.25 37.17 31.59 C 39.30 32.41 40.28 34.80 40.19 36.95 C 40.01 41.36 38.89 45.65 38.19 49.99 C 36.37 49.95 34.56 49.94 32.74 49.93 C 33.27 45.92 34.55 41.97 34.50 37.90 C 33.26 34.36 27.93 36.02 26.98 39.01 C 25.86 42.55 25.58 46.31 24.84 49.94 C 23.05 49.94 21.26 49.94 19.47 49.94 C 20.54 43.77 21.64 37.60 22.73 31.44 C 24.37 31.43 26.01 31.44 27.65 31.44 C 27.58 31.97 27.45 33.04 27.38 33.58 Z" />
<path fill="#ffffff" opacity="1.00" d=" M 70.15 32.21 C 73.83 30.52 78.77 30.24 81.97 33.04 C 84.52 35.56 83.95 39.48 82.94 42.57 C 78.34 42.47 73.73 42.44 69.13 42.60 C 70.61 46.84 75.86 45.89 78.99 44.31 C 79.81 45.46 80.63 46.61 81.45 47.76 C 76.99 50.58 70.31 51.76 66.10 47.94 C 61.97 43.08 64.50 34.74 70.15 32.21 M 69.95 38.39 C 72.97 38.51 75.98 38.51 79.00 38.54 C 78.11 34.14 71.81 35.21 69.95 38.39 Z" />
</g>
</svg>
